<svg viewBox="0 0 512 512" xmlns="http://www.w3.org/2000/svg"><path d="M476,184.47a152.137,152.137,0,0,1-36.7,99.51l25.6,60.18-89.25-15.61a154.4,154.4,0,0,1-33,8.25q.75-7.53.75-15.26a153.066,153.066,0,0,0-17.64-71.56l.41-.21,6.48-2.45c55.62-22.54,74.4-63.13,68.5-93.54-4.12-20.39-18.6-33.62-37.38-33.62-10.37,0-21.82,4.29-32.91,12.34-11.27-8.41-22.53-12.7-33.09-12.7-18.77,0-33.26,13.24-37.2,33.98a63.747,63.747,0,0,0,2.74,32.8,152.987,152.987,0,0,0-73.61-18.74,155.114,155.114,0,0,0-20.34,1.33A153.7,153.7,0,0,1,476,184.47Z" style="fill:#6fe3ff"/><path d="M401.15,153.78c5.9,30.41-12.88,71-68.5,93.54l-6.48,2.45-.41.21a154.419,154.419,0,0,0-62.45-63.4,63.747,63.747,0,0,1-2.74-32.8c3.94-20.74,18.43-33.98,37.2-33.98,10.56,0,21.82,4.29,33.09,12.7,11.09-8.05,22.54-12.34,32.91-12.34C382.55,120.16,397.03,133.39,401.15,153.78Z" style="fill:#f8ec7d"/><path d="M169.36,169.17a155.114,155.114,0,0,1,20.34-1.33,153.612,153.612,0,0,1,153.7,153.7q0,7.725-.75,15.26a153.525,153.525,0,0,1-206.3,128.81L47.1,481.23l25.6-60.18a153.587,153.587,0,0,1,96.66-251.88Zm102.2,155.61a10.448,10.448,0,0,0-10.46-10.45H220.73a8.621,8.621,0,0,1-8.57-7.69,42.784,42.784,0,0,1,2.47-19.63,52.633,52.633,0,0,0,2.47-8.96,52.079,52.079,0,0,0,.83-9.25v-3.83a18.838,18.838,0,0,0-18.83-18.84l-2.12,13.83a94.47,94.47,0,0,1-16.72,40.92,27.7,27.7,0,0,1-22.42,11.43h-10V297.64h-40V399.99h40V387h9.23a62.249,62.249,0,0,1,32.83,9.36,41.674,41.674,0,0,0,15.76,5.58,109.006,109.006,0,0,0,17.07.99h32.56a11.125,11.125,0,0,0,0-22.25h5.09a11.175,11.175,0,1,0,0-22.35h-.34a11.52,11.52,0,0,0,0-23.04v-.05h1.06A10.456,10.456,0,0,0,271.56,324.78Z" style="fill:#e48e66"/><path d="M260.04,335.24v.05a11.52,11.52,0,0,1,0,23.04h.34a11.175,11.175,0,1,1,0,22.35h-5.09a11.125,11.125,0,0,1,0,22.25H222.73a109.006,109.006,0,0,1-17.07-.99,41.674,41.674,0,0,1-15.76-5.58A62.249,62.249,0,0,0,157.07,387h-9.23V312.31h10a27.7,27.7,0,0,0,22.42-11.43,94.47,94.47,0,0,0,16.72-40.92l2.12-13.83a18.838,18.838,0,0,1,18.83,18.84v3.83a52.079,52.079,0,0,1-.83,9.25,52.633,52.633,0,0,1-2.47,8.96,42.784,42.784,0,0,0-2.47,19.63,8.621,8.621,0,0,0,8.57,7.69H261.1a10.455,10.455,0,1,1,0,20.91Z" style="fill:#f7caa5"/><polygon points="147.84 387 147.84 399.99 107.84 399.99 107.84 297.64 147.84 297.64 147.84 312.31 147.84 387" style="fill:#f8ec7d"/></svg>
