<svg viewBox="1 0 511.99975 511.99975" xmlns="http://www.w3.org/2000/svg"><path d="m288.25 486.089844-262.339844-262.34375 152.722656-152.722656c12.238282-12.234376 32.078126-12.234376 44.3125 0l218.027344 218.03125c12.238282 12.234374 12.238282 32.074218 0 44.3125zm0 0" fill="#f7c67b"/><path d="m497.925781 296.777344h-205.335937c-7.773438 0-14.074219-6.300782-14.074219-14.074219v-268.628906c0-7.773438 6.300781-14.074219 14.074219-14.074219h157.5625c34.15625 0 61.847656 27.691406 61.847656 61.847656v220.855469c0 7.773437-6.300781 14.074219-14.074219 14.074219zm0 0" fill="#f0f0ef"/><path d="m353.5625 0h-60.972656c-7.773438 0-14.074219 6.300781-14.074219 14.074219v268.628906c0 7.773437 6.300781 14.074219 14.074219 14.074219h133.898437c-92.902343-76.15625-81.007812-237.617188-72.925781-296.777344zm0 0" fill="#e3e2e1"/><path d="m450.152344 0 6.035156 9.359375c4.875 7.5625 6.03125 16.9375 3.140625 25.460937-3.753906 11.050782 6.800781 21.601563 17.851563 17.851563 8.519531-2.894531 17.894531-1.738281 25.460937 3.140625l9.359375 6.035156c0-34.15625-27.691406-61.847656-61.847656-61.847656zm0 0" fill="#bebfc0"/><path d="m454.285156 67.523438h-118.054687c-6.945313 0-12.574219 5.628906-12.574219 12.574218v18.214844c0 6.941406 5.628906 12.570312 12.574219 12.570312h118.054687c6.941406 0 12.570313-5.628906 12.570313-12.570312v-18.214844c0-6.945312-5.628907-12.574218-12.570313-12.574218zm0 0" fill="#bebfc0"/><path d="m348.300781 67.523438h-12.070312c-6.945313 0-12.570313 5.628906-12.570313 12.574218v18.210938c0 6.945312 5.625 12.574218 12.570313 12.574218h12.917969c-.9375-15.078124-1.128907-29.683593-.847657-43.359374zm0 0" fill="#a9aaab"/><path d="m355.699219 194.320312c0-10.171874-10.355469-18.417968-23.128907-18.417968-12.777343 0-23.132812 8.246094-23.132812 18.417968 0 10.175782 10.355469 18.421876 23.132812 18.421876 12.773438 0 23.128907-8.246094 23.128907-18.421876zm0 0" fill="#eb8d9a"/><path d="m481.074219 194.320312c0-10.171874-10.355469-18.417968-23.128907-18.417968-12.777343 0-23.132812 8.246094-23.132812 18.417968 0 10.175782 10.355469 18.421876 23.132812 18.421876 12.773438 0 23.128907-8.246094 23.128907-18.421876zm0 0" fill="#eb8d9a"/><g fill="#495059"><path d="m336.433594 180.070312c-4.140625 0-7.5-3.355468-7.5-7.5v-9.925781c0-4.144531 3.359375-7.5 7.5-7.5 4.144531 0 7.5 3.355469 7.5 7.5v9.925781c0 4.144532-3.355469 7.5-7.5 7.5zm0 0"/><path d="m395.257812 196.929688c-9.257812 0-16.757812-7.503907-16.757812-16.757813v-12.1875c0-2.523437 2.046875-4.574219 4.574219-4.574219h24.367187c2.527344 0 4.574219 2.050782 4.574219 4.574219v12.1875c0 9.253906-7.503906 16.757813-16.757813 16.757813zm0 0"/><path d="m454.078125 180.070312c-4.140625 0-7.5-3.355468-7.5-7.5v-9.925781c0-4.144531 3.359375-7.5 7.5-7.5 4.144531 0 7.5 3.355469 7.5 7.5v9.925781c0 4.144532-3.355469 7.5-7.5 7.5zm0 0"/></g><path d="m280.964844 196.613281 2.984375-8.628906c1.605469-4.636719.421875-9.785156-3.046875-13.253906l-45.488282-45.488281c-3.46875-3.46875-8.617187-4.652344-13.253906-3.050782l-8.632812 2.988282c-4.636719 1.605468-9.785156.421874-13.253906-3.046876l-16.214844-16.21875c-12.238282-12.234374-32.078125-12.234374-44.316406 0l-130.5625 130.566407c-12.238282 12.238281-12.238282 32.078125 0 44.3125l218.027343 218.027343c12.234375 12.238282 32.074219 12.238282 44.3125 0l130.566407-130.5625c12.234374-12.238281 12.234374-32.078124 0-44.316406l-118.074219-118.070312c-3.46875-3.472656-4.652344-8.617188-3.046875-13.257813zm0 0" fill="#fce68d"/><path d="m98.214844 151.445312-89.035156 89.035157c-12.238282 12.238281-12.238282 32.078125 0 44.3125l218.027343 218.027343c12.234375 12.238282 32.074219 12.238282 44.3125 0l19.597657-19.597656c-82.6875-53.425781-190.691407-207.390625-192.902344-331.777344zm0 0" fill="#f0d87c"/><path d="m36.4375 213.21875 262.21875 262.21875-18.753906 18.753906-262.21875-262.214844zm0 0" fill="#f7c67b"/><path d="m290.972656 483.128906c-42.859375-27.742187-92.492187-82.449218-130.664062-146.035156l-123.871094-123.871094-18.757812 18.753906 262.222656 262.222657zm0 0" fill="#ebb460"/></svg>